<?xml version="1.0" standalone="no"?>
<!DOCTYPE svg PUBLIC "-//W3C//DTD SVG 20010904//EN"
 "http://www.w3.org/TR/2001/REC-SVG-20010904/DTD/svg10.dtd">
<svg version="1.0" xmlns="http://www.w3.org/2000/svg"
 width="1280.000000pt" height="1280.000000pt" viewBox="0 0 1280.000000 1280.000000"
 preserveAspectRatio="xMidYMid meet">

<g transform="translate(0.000000,1280.000000) scale(0.100000,-0.100000)"
fill="#000000" stroke="none">
<path d="M0 10586 c0 -2099 1 -2214 17 -2219 10 -4 36 -17 58 -30 22 -13 74
-42 115 -64 41 -22 91 -49 110 -60 20 -11 68 -37 108 -58 40 -20 74 -41 77
-45 3 -5 18 -15 33 -23 15 -8 54 -29 87 -47 33 -18 84 -46 112 -61 29 -16 77
-42 105 -58 29 -15 79 -42 111 -60 134 -73 165 -90 217 -118 83 -45 105 -57
110 -64 3 -4 31 -21 63 -38 31 -17 82 -44 112 -61 30 -16 80 -43 110 -60 30
-16 79 -43 108 -59 28 -15 77 -42 107 -58 30 -17 80 -44 110 -60 115 -63 155
-86 170 -98 8 -7 49 -30 90 -52 41 -22 100 -54 130 -70 52 -28 89 -49 225
-123 30 -16 81 -44 113 -61 31 -18 86 -48 122 -67 36 -19 72 -40 80 -47 8 -7
44 -28 80 -46 36 -19 67 -36 70 -39 5 -5 68 -38 175 -94 22 -12 42 -23 45 -26
3 -3 23 -14 45 -26 107 -56 170 -89 175 -94 3 -3 25 -15 50 -28 88 -46 125
-67 138 -79 7 -7 30 -20 50 -30 20 -9 39 -19 42 -22 3 -4 24 -16 48 -28 l42
-22 2 282 c2 155 5 -154 8 -688 5 -960 5 -955 8 505 1 944 6 1506 12 1560 35
280 162 536 366 731 104 99 189 158 315 219 119 56 254 95 384 110 123 14
2967 14 3090 0 203 -23 421 -108 581 -228 98 -73 224 -204 287 -299 62 -93
130 -238 157 -333 49 -176 50 -183 50 -1750 0 -954 -4 -1495 -10 -1550 -25
-199 -117 -434 -229 -580 -98 -129 -253 -266 -374 -331 -31 -16 -55 -34 -52
-39 3 -5 0 -12 -6 -16 -8 -5 -9 -3 -4 6 10 16 -5 12 -91 -24 -60 -25 -132 -47
-229 -68 -35 -8 -493 -13 -1520 -17 l-1470 -6 1430 -3 c1511 -2 1525 -2 1680
43 52 15 78 12 105 -15 5 -5 68 -38 175 -94 22 -12 42 -23 45 -26 5 -5 68 -38
175 -94 22 -12 42 -23 45 -26 5 -5 68 -38 175 -94 22 -12 42 -24 43 -28 2 -5
9 -8 16 -8 7 0 21 -8 32 -17 17 -16 58 -39 189 -107 22 -12 42 -23 45 -26 5
-5 68 -38 175 -94 22 -12 42 -23 45 -26 5 -5 68 -38 175 -94 22 -12 42 -23 45
-27 3 -3 22 -13 42 -22 20 -10 40 -21 43 -26 3 -5 37 -26 77 -46 40 -21 88
-47 108 -58 19 -11 59 -33 88 -48 28 -16 77 -42 107 -59 30 -16 80 -43 110
-60 30 -16 80 -43 110 -60 138 -75 170 -94 175 -100 3 -4 39 -25 80 -47 41
-22 101 -54 133 -71 31 -18 82 -45 112 -62 30 -16 80 -43 110 -60 30 -16 81
-44 113 -62 31 -17 91 -49 132 -71 41 -22 82 -45 90 -52 14 -12 56 -36 168
-96 28 -16 77 -42 107 -59 30 -16 80 -43 110 -60 30 -16 79 -43 108 -59 28
-15 68 -37 87 -48 20 -11 68 -37 108 -58 40 -20 74 -41 77 -45 3 -5 18 -15 33
-23 15 -8 53 -28 85 -45 31 -18 82 -46 112 -62 30 -17 80 -43 110 -60 30 -16
79 -43 108 -59 28 -15 68 -37 87 -48 19 -11 64 -35 100 -53 36 -19 77 -42 92
-52 14 -10 31 -18 37 -18 8 0 11 1590 11 5755 l0 5755 -6400 0 -6400 0 0
-2214z m8315 -6716 c-3 -5 -12 -10 -18 -10 -7 0 -6 4 3 10 19 12 23 12 15 0z
m-45 -20 c-8 -5 -19 -10 -25 -10 -5 0 -3 5 5 10 8 5 20 10 25 10 6 0 3 -5 -5
-10z"/>
<path d="M4900 8634 c-208 -33 -352 -100 -488 -228 -94 -89 -188 -249 -220
-376 -30 -116 -32 -207 -30 -1600 1 -1041 4 -1293 9 -935 3 270 7 507 8 528
l1 38 73 -38 c39 -21 81 -46 91 -55 11 -10 25 -18 32 -18 7 0 14 -3 16 -7 2
-5 21 -17 43 -29 107 -56 170 -89 175 -94 5 -5 68 -38 175 -94 22 -12 42 -23
45 -26 3 -3 23 -14 45 -26 129 -67 170 -90 173 -96 2 -5 8 -8 14 -8 5 0 28
-13 51 -28 23 -15 71 -43 107 -62 36 -18 81 -42 100 -53 19 -11 54 -31 77 -44
24 -13 45 -23 48 -23 4 1 41 -26 84 -60 135 -106 273 -181 432 -234 55 -19 99
-37 98 -42 -1 -8 19 -20 151 -91 41 -22 101 -54 133 -71 108 -60 172 -95 237
-130 36 -20 67 -38 70 -42 3 -4 34 -22 70 -42 36 -19 91 -49 123 -67 31 -17
82 -44 112 -61 30 -16 80 -43 110 -60 30 -16 81 -44 113 -62 31 -17 91 -49
132 -71 41 -22 82 -45 90 -52 13 -11 70 -44 140 -81 30 -17 112 -15 -905 -24
l-770 -6 1035 0 1035 1 80 23 c341 94 573 359 615 704 8 67 10 507 8 1573 l-3
1480 -22 75 c-31 106 -57 163 -118 255 -111 168 -277 284 -490 343 -55 15
-198 16 -1570 18 -830 1 -1521 0 -1535 -2z m3057 -488 c91 -46 143 -130 143
-229 0 -71 -16 -112 -67 -167 -50 -56 -102 -80 -178 -80 -134 0 -238 93 -252
225 -12 116 64 229 178 264 45 14 138 7 176 -13z m-1277 -380 c288 -66 519
-195 717 -399 158 -164 260 -332 327 -539 52 -162 61 -223 61 -433 0 -207 -6
-248 -61 -420 -150 -472 -561 -842 -1042 -940 -240 -48 -516 -31 -737 47 -160
56 -345 164 -456 266 -54 49 -86 69 -59 37 28 -34 1 -11 -45 37 -28 29 -35 40
-17 24 17 -17 32 -25 32 -20 0 13 -65 76 -72 69 -2 -3 -13 5 -24 17 -15 18
-16 20 -1 9 9 -7 17 -9 17 -4 0 13 -35 44 -42 37 -3 -3 -9 0 -14 7 -5 8 -3 10
6 4 8 -5 11 -3 8 6 -3 8 -10 14 -15 14 -6 0 -15 4 -20 9 -5 5 -3 6 5 2 18 -11
15 0 -14 44 -15 22 -30 37 -35 35 -4 -3 -11 0 -15 6 -5 8 -3 9 6 4 15 -9 17
-16 -41 105 -100 204 -140 383 -140 615 0 279 81 542 242 782 74 111 263 297
378 372 159 104 348 181 516 210 33 6 71 13 85 15 55 10 387 -3 450 -18z
m-587 -2743 c-7 -2 -19 -2 -25 0 -7 3 -2 5 12 5 14 0 19 -2 13 -5z m92 -13
c27 -7 27 -8 5 -8 -14 0 -38 4 -55 8 -27 7 -27 8 -5 8 14 0 39 -4 55 -8z m118
-17 c-13 -2 -33 -2 -45 0 -13 2 -3 4 22 4 25 0 35 -2 23 -4z m225 0 c-10 -2
-26 -2 -35 0 -10 3 -2 5 17 5 19 0 27 -2 18 -5z m-110 -10 c-10 -2 -26 -2 -35
0 -10 3 -2 5 17 5 19 0 27 -2 18 -5z m1510 -800 c-10 -2 -28 -2 -40 0 -13 2
-5 4 17 4 22 1 32 -1 23 -4z"/>
<path d="M6221 7399 c-29 -5 -95 -23 -145 -40 -317 -106 -551 -351 -653 -686
-24 -80 -26 -103 -27 -258 -1 -185 10 -255 61 -383 124 -313 379 -534 713
-618 112 -28 365 -26 476 4 188 51 340 137 470 267 124 124 213 279 266 461
20 70 23 100 22 259 0 166 -2 187 -27 268 -108 352 -356 600 -702 703 -77 22
-113 27 -245 30 -85 1 -179 -1 -209 -7z"/>
<path d="M4172 4885 c0 -16 2 -22 5 -12 2 9 2 23 0 30 -3 6 -5 -1 -5 -18z"/>
<path d="M3782 4850 c0 -14 2 -19 5 -12 2 6 2 18 0 25 -3 6 -5 1 -5 -13z"/>
<path d="M4182 4820 c0 -14 2 -19 5 -12 2 6 2 18 0 25 -3 6 -5 1 -5 -13z"/>
<path d="M4230 4665 c0 -5 5 -17 10 -25 5 -8 10 -10 10 -5 0 6 -5 17 -10 25
-5 8 -10 11 -10 5z"/>
<path d="M4270 4580 c6 -11 13 -20 16 -20 2 0 0 9 -6 20 -6 11 -13 20 -16 20
-2 0 0 -9 6 -20z"/>
<path d="M4330 4486 c0 -2 8 -10 18 -17 15 -13 16 -12 3 4 -13 16 -21 21 -21
13z"/>
<path d="M4868 4173 c6 -2 18 -2 25 0 6 3 1 5 -13 5 -14 0 -19 -2 -12 -5z"/>
<path d="M5728 4163 c23 -2 59 -2 80 0 20 2 1 4 -43 4 -44 0 -61 -2 -37 -4z"/>
<path d="M4983 3773 c9 -2 25 -2 35 0 9 3 1 5 -18 5 -19 0 -27 -2 -17 -5z"/>
</g>
</svg>
